%TF.GenerationSoftware,KiCad,Pcbnew,10.0.0*%
%TF.CreationDate,2026-05-18T00:31:40-04:00*%
%TF.ProjectId,neopad,6e656f70-6164-42e6-9b69-6361645f7063,rev?*%
%TF.SameCoordinates,Original*%
%TF.FileFunction,Soldermask,Top*%
%TF.FilePolarity,Negative*%
%FSLAX46Y46*%
G04 Gerber Fmt 4.6, Leading zero omitted, Abs format (unit mm)*
G04 Created by KiCad (PCBNEW 10.0.0) date 2026-05-18 00:31:40*
%MOMM*%
%LPD*%
G01*
G04 APERTURE LIST*
G04 Aperture macros list*
%AMRoundRect*
0 Rectangle with rounded corners*
0 $1 Rounding radius*
0 $2 $3 $4 $5 $6 $7 $8 $9 X,Y pos of 4 corners*
0 Add a 4 corners polygon primitive as box body*
4,1,4,$2,$3,$4,$5,$6,$7,$8,$9,$2,$3,0*
0 Add four circle primitives for the rounded corners*
1,1,$1+$1,$2,$3*
1,1,$1+$1,$4,$5*
1,1,$1+$1,$6,$7*
1,1,$1+$1,$8,$9*
0 Add four rect primitives between the rounded corners*
20,1,$1+$1,$2,$3,$4,$5,0*
20,1,$1+$1,$4,$5,$6,$7,0*
20,1,$1+$1,$6,$7,$8,$9,0*
20,1,$1+$1,$8,$9,$2,$3,0*%
G04 Aperture macros list end*
%ADD10R,1.500000X1.000000*%
%ADD11C,1.600000*%
%ADD12RoundRect,0.170000X0.680000X-0.680000X0.680000X0.680000X-0.680000X0.680000X-0.680000X-0.680000X0*%
%ADD13C,1.700000*%
%ADD14RoundRect,0.525400X-0.900400X-0.525400X0.900400X-0.525400X0.900400X0.525400X-0.900400X0.525400X0*%
%ADD15RoundRect,0.275000X-0.275000X0.975000X-0.275000X-0.975000X0.275000X-0.975000X0.275000X0.975000X0*%
%ADD16RoundRect,0.250000X0.550000X-0.550000X0.550000X0.550000X-0.550000X0.550000X-0.550000X-0.550000X0*%
%ADD17C,2.200000*%
%ADD18C,4.000000*%
%ADD19C,2.000000*%
%ADD20R,3.200000X2.000000*%
%ADD21R,2.000000X2.000000*%
%ADD22C,0.600000*%
G04 APERTURE END LIST*
D10*
%TO.C,D18*%
X158640000Y-133650000D03*
X158640000Y-136850000D03*
X153740000Y-136850000D03*
X153740000Y-133650000D03*
%TD*%
D11*
%TO.C,R1*%
X158500000Y-65750000D03*
X158500000Y-73370000D03*
%TD*%
D12*
%TO.C,U3*%
X117500000Y-73250000D03*
D13*
X117500000Y-70710000D03*
X117500000Y-68170000D03*
X117500000Y-65630000D03*
%TD*%
D14*
%TO.C,U1*%
X170548000Y-65490000D03*
X170548000Y-68030000D03*
X170548000Y-70570000D03*
X170548000Y-73110000D03*
X170548000Y-75650000D03*
X170548000Y-78190000D03*
X170548000Y-80730000D03*
X186713000Y-80730000D03*
X186713000Y-78190000D03*
X186713000Y-75650000D03*
X186713000Y-73110000D03*
X186713000Y-70570000D03*
X186713000Y-68030000D03*
X186713000Y-65490000D03*
D13*
X177460000Y-64732000D03*
X180000000Y-64732000D03*
X177460000Y-67272000D03*
X180000000Y-67272000D03*
D15*
X177460000Y-81750000D03*
X180000000Y-81750000D03*
%TD*%
D11*
%TO.C,R2*%
X165000000Y-73370000D03*
X165000000Y-65750000D03*
%TD*%
%TO.C,D1*%
X108500000Y-122500000D03*
D16*
X108500000Y-130120000D03*
%TD*%
D11*
%TO.C,D2*%
X127500000Y-122500000D03*
D16*
X127500000Y-130120000D03*
%TD*%
D11*
%TO.C,D3*%
X146500000Y-122750000D03*
D16*
X146500000Y-130370000D03*
%TD*%
D11*
%TO.C,D4*%
X108500000Y-103000000D03*
D16*
X108500000Y-110620000D03*
%TD*%
D11*
%TO.C,D5*%
X127500000Y-103500000D03*
D16*
X127500000Y-111120000D03*
%TD*%
D11*
%TO.C,D6*%
X146750000Y-103750000D03*
D16*
X146750000Y-111370000D03*
%TD*%
D11*
%TO.C,D7*%
X108500000Y-84500000D03*
D16*
X108500000Y-92120000D03*
%TD*%
D11*
%TO.C,D8*%
X127500000Y-84750000D03*
D16*
X127500000Y-92370000D03*
%TD*%
D11*
%TO.C,D9*%
X146500000Y-84560000D03*
D16*
X146500000Y-92180000D03*
%TD*%
D17*
%TO.C,SW1*%
X114440000Y-85250000D03*
X120790000Y-82710000D03*
D18*
X118250000Y-87790000D03*
%TD*%
D17*
%TO.C,SW2*%
X114440000Y-104250000D03*
X120790000Y-101710000D03*
D18*
X118250000Y-106790000D03*
%TD*%
D17*
%TO.C,SW3*%
X114440000Y-123250000D03*
X120790000Y-120710000D03*
D18*
X118250000Y-125790000D03*
%TD*%
D17*
%TO.C,SW4*%
X133440000Y-85250000D03*
X139790000Y-82710000D03*
D18*
X137250000Y-87790000D03*
%TD*%
D17*
%TO.C,SW5*%
X133440000Y-104250000D03*
X139790000Y-101710000D03*
D18*
X137250000Y-106790000D03*
%TD*%
D17*
%TO.C,SW6*%
X133440000Y-123250000D03*
X139790000Y-120710000D03*
D18*
X137250000Y-125790000D03*
%TD*%
D17*
%TO.C,SW7*%
X152440000Y-85250000D03*
X158790000Y-82710000D03*
D18*
X156250000Y-87790000D03*
%TD*%
D17*
%TO.C,SW8*%
X152440000Y-104250000D03*
X158790000Y-101710000D03*
D18*
X156250000Y-106790000D03*
%TD*%
D17*
%TO.C,SW9*%
X152440000Y-123250000D03*
X158790000Y-120710000D03*
D18*
X156250000Y-125790000D03*
%TD*%
D19*
%TO.C,SW11*%
X186000000Y-94750000D03*
X186000000Y-99750000D03*
D20*
X179000000Y-102850000D03*
X179000000Y-91650000D03*
D19*
X171500000Y-97250000D03*
X171500000Y-99750000D03*
D21*
X171500000Y-94750000D03*
%TD*%
D19*
%TO.C,SW12*%
X185750000Y-118000000D03*
X185750000Y-123000000D03*
D20*
X178750000Y-126100000D03*
X178750000Y-114900000D03*
D19*
X171250000Y-120500000D03*
X171250000Y-123000000D03*
D21*
X171250000Y-118000000D03*
%TD*%
D10*
%TO.C,D14*%
X134740000Y-114650000D03*
X134740000Y-117850000D03*
X139640000Y-117850000D03*
X139640000Y-114650000D03*
%TD*%
%TO.C,D15*%
X134740000Y-133650000D03*
X134740000Y-136850000D03*
X139640000Y-136850000D03*
X139640000Y-133650000D03*
%TD*%
%TO.C,D12*%
X115740000Y-133650000D03*
X115740000Y-136850000D03*
X120640000Y-136850000D03*
X120640000Y-133650000D03*
%TD*%
%TO.C,D13*%
X134740000Y-95650000D03*
X134740000Y-98850000D03*
X139640000Y-98850000D03*
X139640000Y-95650000D03*
%TD*%
%TO.C,D16*%
X153740000Y-95650000D03*
X153740000Y-98850000D03*
X158640000Y-98850000D03*
X158640000Y-95650000D03*
%TD*%
%TO.C,D10*%
X115680000Y-95550000D03*
X115680000Y-98750000D03*
X120580000Y-98750000D03*
X120580000Y-95550000D03*
%TD*%
%TO.C,D11*%
X115740000Y-114650000D03*
X115740000Y-117850000D03*
X120640000Y-117850000D03*
X120640000Y-114650000D03*
%TD*%
%TO.C,D17*%
X153740000Y-114650000D03*
X153740000Y-117850000D03*
X158640000Y-117850000D03*
X158640000Y-114650000D03*
%TD*%
D22*
X124750000Y-96750000D03*
M02*
