%TF.GenerationSoftware,KiCad,Pcbnew,10.0.0*%
%TF.CreationDate,2026-05-18T00:31:40-04:00*%
%TF.ProjectId,neopad,6e656f70-6164-42e6-9b69-6361645f7063,rev?*%
%TF.SameCoordinates,Original*%
%TF.FileFunction,Copper,L2,Bot*%
%TF.FilePolarity,Positive*%
%FSLAX46Y46*%
G04 Gerber Fmt 4.6, Leading zero omitted, Abs format (unit mm)*
G04 Created by KiCad (PCBNEW 10.0.0) date 2026-05-18 00:31:40*
%MOMM*%
%LPD*%
G01*
G04 APERTURE LIST*
G04 Aperture macros list*
%AMRoundRect*
0 Rectangle with rounded corners*
0 $1 Rounding radius*
0 $2 $3 $4 $5 $6 $7 $8 $9 X,Y pos of 4 corners*
0 Add a 4 corners polygon primitive as box body*
4,1,4,$2,$3,$4,$5,$6,$7,$8,$9,$2,$3,0*
0 Add four circle primitives for the rounded corners*
1,1,$1+$1,$2,$3*
1,1,$1+$1,$4,$5*
1,1,$1+$1,$6,$7*
1,1,$1+$1,$8,$9*
0 Add four rect primitives between the rounded corners*
20,1,$1+$1,$2,$3,$4,$5,0*
20,1,$1+$1,$4,$5,$6,$7,0*
20,1,$1+$1,$6,$7,$8,$9,0*
20,1,$1+$1,$8,$9,$2,$3,0*%
G04 Aperture macros list end*
%TA.AperFunction,ComponentPad*%
%ADD10C,1.600000*%
%TD*%
%TA.AperFunction,ComponentPad*%
%ADD11RoundRect,0.170000X0.680000X-0.680000X0.680000X0.680000X-0.680000X0.680000X-0.680000X-0.680000X0*%
%TD*%
%TA.AperFunction,ComponentPad*%
%ADD12C,1.700000*%
%TD*%
%TA.AperFunction,ComponentPad*%
%ADD13RoundRect,0.250000X0.550000X-0.550000X0.550000X0.550000X-0.550000X0.550000X-0.550000X-0.550000X0*%
%TD*%
%TA.AperFunction,ComponentPad*%
%ADD14C,2.200000*%
%TD*%
%TA.AperFunction,ComponentPad*%
%ADD15C,2.000000*%
%TD*%
%TA.AperFunction,ComponentPad*%
%ADD16R,3.200000X2.000000*%
%TD*%
%TA.AperFunction,ComponentPad*%
%ADD17R,2.000000X2.000000*%
%TD*%
%TA.AperFunction,ViaPad*%
%ADD18C,0.600000*%
%TD*%
%TA.AperFunction,Conductor*%
%ADD19C,0.200000*%
%TD*%
G04 APERTURE END LIST*
D10*
%TO.P,R1,2*%
%TO.N,SCL*%
X158500000Y-65750000D03*
%TO.P,R1,1*%
%TO.N,+3V3*%
X158500000Y-73370000D03*
%TD*%
D11*
%TO.P,U3,1,GND_1*%
%TO.N,SCL*%
X117500000Y-73250000D03*
D12*
%TO.P,U3,2,VCC_2*%
X117500000Y-70710000D03*
%TO.P,U3,3,SCL_3*%
X117500000Y-68170000D03*
%TO.P,U3,4,SDA_4*%
X117500000Y-65630000D03*
%TD*%
D10*
%TO.P,R2,1*%
%TO.N,SCL*%
X165000000Y-73370000D03*
%TO.P,R2,2*%
X165000000Y-65750000D03*
%TD*%
%TO.P,D1,2,A_2*%
%TO.N,Net-(D1-A)*%
X108500000Y-122500000D03*
D13*
%TO.P,D1,1,K_1*%
%TO.N,Column 0*%
X108500000Y-130120000D03*
%TD*%
D10*
%TO.P,D2,2,A_2*%
%TO.N,Net-(D2-A)*%
X127500000Y-122500000D03*
D13*
%TO.P,D2,1,K_1*%
%TO.N,Column 0*%
X127500000Y-130120000D03*
%TD*%
D10*
%TO.P,D3,2,A_2*%
%TO.N,Net-(D3-A)*%
X146500000Y-122750000D03*
D13*
%TO.P,D3,1,K_1*%
%TO.N,Column 0*%
X146500000Y-130370000D03*
%TD*%
D10*
%TO.P,D4,2,A_2*%
%TO.N,Net-(D4-A)*%
X108500000Y-103000000D03*
D13*
%TO.P,D4,1,K_1*%
%TO.N,Column 0*%
X108500000Y-110620000D03*
%TD*%
D10*
%TO.P,D5,2,A_2*%
%TO.N,Net-(D5-A)*%
X127500000Y-103500000D03*
D13*
%TO.P,D5,1,K_1*%
%TO.N,Column 0*%
X127500000Y-111120000D03*
%TD*%
D10*
%TO.P,D6,2,A_2*%
%TO.N,Net-(D6-A)*%
X146750000Y-103750000D03*
D13*
%TO.P,D6,1,K_1*%
%TO.N,Column 0*%
X146750000Y-111370000D03*
%TD*%
D10*
%TO.P,D7,2,A_2*%
%TO.N,Net-(D7-A)*%
X108500000Y-84500000D03*
D13*
%TO.P,D7,1,K_1*%
%TO.N,Column 0*%
X108500000Y-92120000D03*
%TD*%
D10*
%TO.P,D8,2,A_2*%
%TO.N,Net-(D8-A)*%
X127500000Y-84750000D03*
D13*
%TO.P,D8,1,K_1*%
%TO.N,Column 0*%
X127500000Y-92370000D03*
%TD*%
D10*
%TO.P,D9,2,A_2*%
%TO.N,Net-(D9-A)*%
X146500000Y-84560000D03*
D13*
%TO.P,D9,1,K_1*%
%TO.N,Column 0*%
X146500000Y-92180000D03*
%TD*%
D14*
%TO.P,SW1,2,2_2*%
%TO.N,Net-(D1-A)*%
X114440000Y-85250000D03*
%TO.P,SW1,1,1_1*%
%TO.N,Column 0*%
X120790000Y-82710000D03*
%TD*%
%TO.P,SW2,2,2_2*%
%TO.N,Net-(D2-A)*%
X114440000Y-104250000D03*
%TO.P,SW2,1,1_1*%
%TO.N,Column 0*%
X120790000Y-101710000D03*
%TD*%
%TO.P,SW3,2,2_2*%
%TO.N,Net-(D3-A)*%
X114440000Y-123250000D03*
%TO.P,SW3,1,1_1*%
%TO.N,Column 0*%
X120790000Y-120710000D03*
%TD*%
%TO.P,SW4,2,2_2*%
%TO.N,Net-(D4-A)*%
X133440000Y-85250000D03*
%TO.P,SW4,1,1_1*%
%TO.N,Column 0*%
X139790000Y-82710000D03*
%TD*%
%TO.P,SW5,2,2_2*%
%TO.N,Net-(D5-A)*%
X133440000Y-104250000D03*
%TO.P,SW5,1,1_1*%
%TO.N,Column 0*%
X139790000Y-101710000D03*
%TD*%
%TO.P,SW6,2,2_2*%
%TO.N,Net-(D6-A)*%
X133440000Y-123250000D03*
%TO.P,SW6,1,1_1*%
%TO.N,Column 0*%
X139790000Y-120710000D03*
%TD*%
%TO.P,SW7,2,2_2*%
%TO.N,Net-(D7-A)*%
X152440000Y-85250000D03*
%TO.P,SW7,1,1_1*%
%TO.N,Column 0*%
X158790000Y-82710000D03*
%TD*%
%TO.P,SW8,2,2_2*%
%TO.N,Net-(D8-A)*%
X152440000Y-104250000D03*
%TO.P,SW8,1,1_1*%
%TO.N,Column 0*%
X158790000Y-101710000D03*
%TD*%
%TO.P,SW9,2,2_2*%
%TO.N,Net-(D9-A)*%
X152440000Y-123250000D03*
%TO.P,SW9,1,1_1*%
%TO.N,Column 0*%
X158790000Y-120710000D03*
%TD*%
D15*
%TO.P,SW11,S2,S2_S2*%
%TO.N,unconnected-(SW11-PadS2)*%
X186000000Y-94750000D03*
%TO.P,SW11,S1,S1_S1*%
%TO.N,unconnected-(SW11-PadS1)*%
X186000000Y-99750000D03*
D16*
%TO.P,SW11,MP*%
%TO.N,N/C*%
X179000000Y-102850000D03*
X179000000Y-91650000D03*
D15*
%TO.P,SW11,C,C_C*%
%TO.N,SCL*%
X171500000Y-97250000D03*
%TO.P,SW11,B,B_B*%
%TO.N,Net-(U1-PA5_A9_D9_MISO)*%
X171500000Y-99750000D03*
D17*
%TO.P,SW11,A,A_A*%
%TO.N,Net-(U1-PA6_A10_D10_MOSI)*%
X171500000Y-94750000D03*
%TD*%
D15*
%TO.P,SW12,S2,S2_S2*%
%TO.N,unconnected-(SW12-PadS2)*%
X185750000Y-118000000D03*
%TO.P,SW12,S1,S1_S1*%
%TO.N,unconnected-(SW12-PadS1)*%
X185750000Y-123000000D03*
D16*
%TO.P,SW12,MP*%
%TO.N,N/C*%
X178750000Y-126100000D03*
X178750000Y-114900000D03*
D15*
%TO.P,SW12,C,C_C*%
%TO.N,SCL*%
X171250000Y-120500000D03*
%TO.P,SW12,B,B_B*%
%TO.N,Net-(U1-PB09_A7_D7_RX)*%
X171250000Y-123000000D03*
D17*
%TO.P,SW12,A,A_A*%
%TO.N,Net-(U1-PA7_A8_D8_SCK)*%
X171250000Y-118000000D03*
%TD*%
D18*
%TO.N,Column 0*%
X123500000Y-101750000D03*
X122970735Y-99680735D03*
%TO.N,SCL*%
X154755050Y-83755050D03*
%TO.N,Net-(D12-DOUT)*%
X127500000Y-132250000D03*
X131000000Y-101000000D03*
%TO.N,Column 0*%
X144000000Y-93250000D03*
X137350000Y-121150000D03*
X131040000Y-121000000D03*
X124000000Y-108750000D03*
X162000000Y-79000000D03*
X160750000Y-81250000D03*
X144750000Y-119500000D03*
X122500000Y-114750000D03*
X121522579Y-118832104D03*
X122250000Y-120000000D03*
X122000000Y-111750000D03*
X148750000Y-98150000D03*
X148000000Y-99500000D03*
X149000000Y-101750000D03*
X153250000Y-101750000D03*
X137546339Y-98750000D03*
X124000000Y-106500000D03*
X124250000Y-104500000D03*
X148250000Y-128790000D03*
X163079214Y-84170786D03*
X164250000Y-79500000D03*
%TO.N,Net-(U1-PB09_A7_D7_RX)*%
X181000000Y-109500000D03*
X174500000Y-109500000D03*
%TO.N,Net-(D17-DIN)*%
X153740000Y-117850000D03*
X157750000Y-131000000D03*
%TO.N,Net-(D2-A)*%
X128750000Y-114500000D03*
%TO.N,+5V*%
X120580000Y-98750000D03*
X142500000Y-101250000D03*
%TO.N,Net-(D12-DOUT)*%
X127500000Y-132250000D03*
%TO.N,Net-(D11-DOUT)*%
X118000000Y-118500000D03*
X116500000Y-122500000D03*
%TO.N,+5V*%
X157000000Y-129250000D03*
X161500000Y-131250000D03*
X160993620Y-97502953D03*
X156250000Y-94500000D03*
X155000000Y-96250000D03*
X149500000Y-96250000D03*
X141000000Y-84750000D03*
X140977868Y-88316397D03*
X138250000Y-96000000D03*
X139640000Y-98850000D03*
%TO.N,Net-(D15-DOUT)*%
X155750000Y-129250000D03*
X153800000Y-127390000D03*
X153740000Y-130500000D03*
X153740000Y-136850000D03*
%TO.N,Net-(D16-DIN)*%
X153740000Y-98850000D03*
%TO.N,SCL*%
X153740000Y-95650000D03*
%TO.N,Net-(D14-DOUT)*%
X136000000Y-120750000D03*
X134290103Y-120009854D03*
X134004925Y-125000469D03*
X138375000Y-117875000D03*
X139640000Y-114650000D03*
%TO.N,*%
X124750000Y-96750000D03*
%TO.N,SCL*%
X124250000Y-96000000D03*
X167500000Y-101250000D03*
X163125000Y-97125000D03*
X121380000Y-105870000D03*
X146750000Y-100500000D03*
X146472182Y-102472182D03*
X113000000Y-108250000D03*
X145500000Y-98000000D03*
X120750000Y-85250000D03*
X115750000Y-90500000D03*
X136750000Y-102000000D03*
X145500000Y-100750000D03*
X167750000Y-90500000D03*
X131225000Y-106525000D03*
X153740000Y-114650000D03*
%TO.N,Net-(D13-DOUT)*%
X143750000Y-99750000D03*
X144250000Y-98000000D03*
%TO.N,+5V*%
X137500000Y-111500000D03*
X140000000Y-113000000D03*
X118750000Y-122750000D03*
X118750000Y-119750000D03*
%TO.N,Net-(D14-DOUT)*%
X133355000Y-129645000D03*
%TO.N,Net-(D15-DOUT)*%
X138500000Y-129000000D03*
X139750000Y-124190000D03*
%TO.N,Net-(D6-A)*%
X136750000Y-122750000D03*
%TO.N,Net-(D16-DIN)*%
X159000000Y-112500000D03*
X154000000Y-93500000D03*
%TO.N,SCL*%
X158000000Y-79000000D03*
%TD*%
%TO.N,Column 0*%
D19*
X123500000Y-101750000D02*
X123460000Y-101710000D01*
X123460000Y-101710000D02*
X120790000Y-101710000D01*
X122640000Y-99350000D02*
X122970735Y-99680735D01*
X120889949Y-99350000D02*
X122640000Y-99350000D01*
%TO.N,SCL*%
X120210101Y-100310000D02*
X119390000Y-101130101D01*
X123190000Y-100310000D02*
X120210101Y-100310000D01*
X124150000Y-99350000D02*
X123190000Y-100310000D01*
X124150000Y-96100000D02*
X124150000Y-99350000D01*
X124250000Y-96000000D02*
X124150000Y-96100000D01*
%TO.N,Column 0*%
X125630000Y-92370000D02*
X127500000Y-92370000D01*
X120889949Y-99350000D02*
X121180000Y-99059949D01*
X121180000Y-99059949D02*
X121180000Y-96820000D01*
X121180000Y-96820000D02*
X125630000Y-92370000D01*
X117250000Y-97670000D02*
X117250000Y-99350000D01*
X121889999Y-93030001D02*
X117250000Y-97670000D01*
X121889999Y-83809999D02*
X121889999Y-93030001D01*
X117250000Y-99350000D02*
X120889949Y-99350000D01*
%TO.N,SCL*%
X154755050Y-83755050D02*
X155500000Y-83010101D01*
X155500000Y-83010101D02*
X155500000Y-81500000D01*
X155500000Y-81500000D02*
X158000000Y-79000000D01*
%TO.N,Net-(D12-DOUT)*%
X128800000Y-130950000D02*
X127500000Y-132250000D01*
X137598529Y-121750000D02*
X132960101Y-121750000D01*
X132960101Y-121750000D02*
X128800000Y-125910101D01*
X133605686Y-115910000D02*
X138240000Y-120544314D01*
X128800000Y-125910101D02*
X128800000Y-130950000D01*
X133605686Y-112707157D02*
X133605686Y-115910000D01*
X126400000Y-105501471D02*
X133605686Y-112707157D01*
X126400000Y-103044365D02*
X126400000Y-105501471D01*
X138240000Y-121108529D02*
X137598529Y-121750000D01*
X128444365Y-101000000D02*
X126400000Y-103044365D01*
X131000000Y-101000000D02*
X128444365Y-101000000D01*
X138240000Y-120544314D02*
X138240000Y-121108529D01*
%TO.N,Column 0*%
X141600000Y-99900000D02*
X140072843Y-101427157D01*
X141345634Y-82710000D02*
X141600000Y-82964366D01*
X139790000Y-82710000D02*
X141345634Y-82710000D01*
X141600000Y-82964366D02*
X141600000Y-99900000D01*
X146500000Y-94600000D02*
X139790000Y-101310000D01*
X146500000Y-92180000D02*
X146500000Y-94600000D01*
X142530000Y-91780000D02*
X144000000Y-93250000D01*
X128090000Y-91780000D02*
X142530000Y-91780000D01*
X127500000Y-92370000D02*
X128090000Y-91780000D01*
X137150000Y-121350000D02*
X137350000Y-121150000D01*
X131390000Y-121350000D02*
X137150000Y-121350000D01*
X131040000Y-121000000D02*
X131390000Y-121350000D01*
X124000000Y-108750000D02*
X122000000Y-110750000D01*
X122000000Y-110750000D02*
X122000000Y-111750000D01*
X162000000Y-80000000D02*
X162000000Y-79000000D01*
X160750000Y-81250000D02*
X162000000Y-80000000D01*
X143540000Y-120710000D02*
X139790000Y-120710000D01*
X144750000Y-119500000D02*
X143540000Y-120710000D01*
X122500000Y-114750000D02*
X123870000Y-114750000D01*
X123870000Y-114750000D02*
X126870000Y-111750000D01*
X126870000Y-111750000D02*
X122000000Y-111750000D01*
X121522579Y-118832104D02*
X120390000Y-119964683D01*
X120390000Y-119964683D02*
X120390000Y-123010000D01*
X120390000Y-123010000D02*
X127217158Y-129837158D01*
X120934314Y-120000000D02*
X120390000Y-120544314D01*
X120390000Y-120544314D02*
X120390000Y-123010000D01*
X122250000Y-120000000D02*
X120934314Y-120000000D01*
X148000000Y-98900000D02*
X148750000Y-98150000D01*
X148000000Y-99500000D02*
X148000000Y-98900000D01*
X153250000Y-101750000D02*
X149000000Y-101750000D01*
X139790000Y-101144314D02*
X139507157Y-101427157D01*
X137546339Y-98750000D02*
X139790000Y-100993661D01*
X139790000Y-100993661D02*
X139790000Y-101144314D01*
X124000000Y-106500000D02*
X124000000Y-104920000D01*
X124000000Y-104920000D02*
X121072843Y-101992843D01*
X121460000Y-101710000D02*
X121355686Y-101710000D01*
X124250000Y-104500000D02*
X121460000Y-101710000D01*
X121355686Y-101710000D02*
X121072843Y-101992843D01*
X148250000Y-128790000D02*
X148250000Y-128250000D01*
X148250000Y-128250000D02*
X140710000Y-120710000D01*
X140710000Y-120710000D02*
X139790000Y-120710000D01*
X120790000Y-82710000D02*
X121889999Y-83809999D01*
X108500000Y-89210101D02*
X108500000Y-92120000D01*
X113860101Y-83850000D02*
X108500000Y-89210101D01*
X115019899Y-83850000D02*
X113860101Y-83850000D01*
X115840000Y-84670101D02*
X115019899Y-83850000D01*
X115840000Y-85829899D02*
X115840000Y-84670101D01*
X115019899Y-86650000D02*
X115840000Y-85829899D01*
X115019899Y-90618428D02*
X115019899Y-86650000D01*
X115501471Y-91100000D02*
X115019899Y-90618428D01*
X118263402Y-91100000D02*
X115501471Y-91100000D01*
X121889999Y-87473403D02*
X118263402Y-91100000D01*
X121889999Y-83809999D02*
X121889999Y-87473403D01*
%TO.N,SCL*%
X117500000Y-73250000D02*
X117500000Y-85216598D01*
X117500000Y-85216598D02*
X117466598Y-85250000D01*
X117500000Y-70710000D02*
X117500000Y-73250000D01*
X117500000Y-68170000D02*
X117500000Y-70710000D01*
X117500000Y-65630000D02*
X117500000Y-68170000D01*
%TO.N,Column 0*%
X164250000Y-79500000D02*
X164250000Y-83000000D01*
X164250000Y-83000000D02*
X163079214Y-84170786D01*
%TO.N,Net-(U1-PB09_A7_D7_RX)*%
X174500000Y-109500000D02*
X181000000Y-109500000D01*
%TO.N,+5V*%
X157390000Y-121499999D02*
X157390000Y-121289899D01*
X158684314Y-129315686D02*
X161945001Y-126055000D01*
X161945001Y-126055000D02*
X157390000Y-121499999D01*
%TO.N,Net-(D17-DIN)*%
X158240000Y-130510000D02*
X157750000Y-131000000D01*
X158240000Y-129650000D02*
X158240000Y-130510000D01*
X157448529Y-129650000D02*
X158240000Y-129650000D01*
X157248529Y-129850000D02*
X157448529Y-129650000D01*
X156751471Y-129850000D02*
X157248529Y-129850000D01*
X156400000Y-129498529D02*
X156751471Y-129850000D01*
X156400000Y-129001471D02*
X156400000Y-129498529D01*
X158540000Y-128850000D02*
X157448529Y-128850000D01*
X156751471Y-128650000D02*
X156400000Y-129001471D01*
X158600000Y-128790000D02*
X158540000Y-128850000D01*
X157248529Y-128650000D02*
X156751471Y-128650000D01*
X158600000Y-123600000D02*
X158600000Y-128790000D01*
X153740000Y-118740000D02*
X158600000Y-123600000D01*
X157448529Y-128850000D02*
X157248529Y-128650000D01*
X153740000Y-117850000D02*
X153740000Y-118740000D01*
%TO.N,Net-(D2-A)*%
X128750000Y-115000000D02*
X128750000Y-114500000D01*
X127500000Y-116250000D02*
X128750000Y-115000000D01*
X122250000Y-116250000D02*
X127500000Y-116250000D01*
X114440000Y-108440000D02*
X122250000Y-116250000D01*
X114440000Y-104250000D02*
X114440000Y-108440000D01*
%TO.N,+5V*%
X135919899Y-84750000D02*
X141000000Y-84750000D01*
X134019899Y-86650000D02*
X135919899Y-84750000D01*
X130060101Y-86650000D02*
X134019899Y-86650000D01*
X120580000Y-96130101D02*
X130060101Y-86650000D01*
X120580000Y-98750000D02*
X120580000Y-96130101D01*
%TO.N,Net-(D8-A)*%
X130940000Y-81310000D02*
X127500000Y-84750000D01*
X141179087Y-81310000D02*
X130940000Y-81310000D01*
X150010000Y-90140913D02*
X141179087Y-81310000D01*
X157390000Y-82760912D02*
X150010000Y-90140913D01*
X157390000Y-82130101D02*
X157390000Y-82760912D01*
X158210101Y-81310000D02*
X157390000Y-82130101D01*
X159369899Y-81310000D02*
X158210101Y-81310000D01*
X163900000Y-108448529D02*
X163900000Y-85840101D01*
X159248529Y-113100000D02*
X163900000Y-108448529D01*
X158751471Y-113100000D02*
X159248529Y-113100000D01*
X152440000Y-106788529D02*
X158751471Y-113100000D01*
X152440000Y-104250000D02*
X152440000Y-106788529D01*
X163900000Y-85840101D02*
X159369899Y-81310000D01*
%TO.N,Net-(D9-A)*%
X152440000Y-128124314D02*
X152440000Y-123250000D01*
X153120000Y-128804314D02*
X152440000Y-128124314D01*
X153120000Y-129870000D02*
X153120000Y-128804314D01*
X153320735Y-130070735D02*
X153120000Y-129870000D01*
X153491471Y-129900000D02*
X153320735Y-130070735D01*
X153988529Y-129900000D02*
X153491471Y-129900000D01*
X154340000Y-130251471D02*
X153988529Y-129900000D01*
X154340000Y-130748529D02*
X154340000Y-130251471D01*
X166850000Y-128340000D02*
X159220000Y-135970000D01*
X166850000Y-78001471D02*
X166850000Y-128340000D01*
X166498529Y-77650000D02*
X166850000Y-78001471D01*
X154169264Y-130919264D02*
X154340000Y-130748529D01*
X153410000Y-77650000D02*
X166498529Y-77650000D01*
X146500000Y-84560000D02*
X153410000Y-77650000D01*
X159220000Y-135970000D02*
X154169264Y-130919264D01*
%TO.N,+5V*%
X138500000Y-109900000D02*
X138500000Y-111500000D01*
X139764214Y-109900000D02*
X138500000Y-109900000D01*
X139998529Y-109334315D02*
X139998529Y-109665685D01*
X140000000Y-109332844D02*
X139998529Y-109334315D01*
X140000000Y-108750000D02*
X140000000Y-109332844D01*
X139600000Y-108350000D02*
X140000000Y-108750000D01*
X140183299Y-104750000D02*
X139600000Y-105333299D01*
X140250000Y-104000000D02*
X140250000Y-104750000D01*
X139998529Y-109665685D02*
X139764214Y-109900000D01*
X140882157Y-103367843D02*
X140250000Y-104000000D01*
X157517207Y-120002893D02*
X140882157Y-103367843D01*
X157390000Y-120130101D02*
X157517207Y-120002893D01*
X139600000Y-105333299D02*
X139600000Y-108350000D01*
X157390000Y-121289899D02*
X157390000Y-120130101D01*
X158210101Y-122110000D02*
X157390000Y-121289899D01*
X160190000Y-121289899D02*
X159369899Y-122110000D01*
X160190000Y-120130101D02*
X160190000Y-121289899D01*
X159369899Y-119310000D02*
X160190000Y-120130101D01*
X158210101Y-119310000D02*
X159369899Y-119310000D01*
X158082894Y-119437208D02*
X158210101Y-119310000D01*
X154340000Y-114898529D02*
X153988529Y-115250000D01*
X154340000Y-114401471D02*
X154340000Y-114898529D01*
X153705686Y-114050000D02*
X153988529Y-114050000D01*
X146050000Y-106394314D02*
X153705686Y-114050000D01*
X146050000Y-104605635D02*
X146050000Y-106394314D01*
X146294365Y-104850000D02*
X146050000Y-104605635D01*
X147205635Y-104850000D02*
X146294365Y-104850000D01*
X147850000Y-104205635D02*
X147205635Y-104850000D01*
X147850000Y-103294365D02*
X147850000Y-104205635D01*
X159369899Y-122110000D02*
X158210101Y-122110000D01*
X147072182Y-102650000D02*
X147205635Y-102650000D01*
X147072182Y-102223653D02*
X147072182Y-102650000D01*
X140250000Y-104750000D02*
X140183299Y-104750000D01*
X145250000Y-103128679D02*
X145872182Y-102506496D01*
X141197843Y-102552157D02*
X145250000Y-106604314D01*
X145250000Y-106604314D02*
X145250000Y-103128679D01*
X153895686Y-115250000D02*
X158082894Y-119437208D01*
X145872182Y-102223653D02*
X146223653Y-101872182D01*
X146223653Y-101872182D02*
X146720711Y-101872182D01*
X147205635Y-102650000D02*
X147850000Y-103294365D01*
X153988529Y-115250000D02*
X153895686Y-115250000D01*
X142500000Y-101250000D02*
X141197843Y-102552157D01*
X153988529Y-114050000D02*
X154340000Y-114401471D01*
X145872182Y-102506496D02*
X145872182Y-102223653D01*
X146720711Y-101872182D02*
X147072182Y-102223653D01*
%TO.N,SCL*%
X118569899Y-100310000D02*
X119390000Y-101130101D01*
X116400101Y-100310000D02*
X118569899Y-100310000D01*
X113000000Y-103710101D02*
X113000000Y-108250000D01*
X116400101Y-100310000D02*
X113000000Y-103710101D01*
%TO.N,Net-(D1-A)*%
X111750000Y-119250000D02*
X108500000Y-122500000D01*
X111750000Y-100000000D02*
X111750000Y-119250000D01*
X113280000Y-98034744D02*
X113280000Y-98470000D01*
X113280000Y-98470000D02*
X111750000Y-100000000D01*
%TO.N,Net-(D11-DOUT)*%
X116500000Y-122500000D02*
X117000000Y-122500000D01*
X117000000Y-122500000D02*
X118000000Y-121500000D01*
X118000000Y-121500000D02*
X118000000Y-118500000D01*
%TO.N,+5V*%
X157000000Y-129250000D02*
X159500000Y-129250000D01*
X159500000Y-129250000D02*
X161500000Y-131250000D01*
X156250000Y-95000000D02*
X156250000Y-94500000D01*
X160252953Y-97502953D02*
X160000000Y-97250000D01*
X160993620Y-97502953D02*
X160252953Y-97502953D01*
X160000000Y-97250000D02*
X158500000Y-97250000D01*
X158500000Y-97250000D02*
X156250000Y-95000000D01*
X149500000Y-96250000D02*
X155000000Y-96250000D01*
X140977868Y-84772132D02*
X141000000Y-84750000D01*
X140977868Y-88316397D02*
X140977868Y-84772132D01*
X138750000Y-96500000D02*
X138250000Y-96000000D01*
X139640000Y-98850000D02*
X138750000Y-97960000D01*
X138750000Y-97960000D02*
X138750000Y-96500000D01*
%TO.N,Net-(D15-DOUT)*%
X155750000Y-128750000D02*
X155750000Y-129250000D01*
X154390000Y-127390000D02*
X155750000Y-128750000D01*
X153800000Y-127390000D02*
X154390000Y-127390000D01*
X153740000Y-136850000D02*
X153740000Y-130500000D01*
%TO.N,Net-(D16-DIN)*%
X160250000Y-99750000D02*
X155750000Y-95250000D01*
X160250000Y-110000000D02*
X160250000Y-99750000D01*
X159000000Y-111250000D02*
X160250000Y-110000000D01*
X159000000Y-112500000D02*
X159000000Y-111250000D01*
X154850000Y-98850000D02*
X155250000Y-99250000D01*
X153740000Y-98850000D02*
X154850000Y-98850000D01*
%TO.N,SCL*%
X163500000Y-96750000D02*
X163125000Y-97125000D01*
X163500000Y-93341471D02*
X163500000Y-96750000D01*
X156156471Y-90495000D02*
X160653529Y-90495000D01*
X153400000Y-95400000D02*
X153400000Y-93251471D01*
X153740000Y-95650000D02*
X153650000Y-95650000D01*
X153650000Y-95650000D02*
X153400000Y-95400000D01*
X153400000Y-93251471D02*
X156156471Y-90495000D01*
X160653529Y-90495000D02*
X163500000Y-93341471D01*
%TO.N,Net-(D14-DOUT)*%
X136000000Y-120500000D02*
X136000000Y-120750000D01*
X135509854Y-120009854D02*
X136000000Y-120500000D01*
X134290103Y-120009854D02*
X135509854Y-120009854D01*
X133250000Y-129000000D02*
X133250000Y-128500000D01*
X133250000Y-128500000D02*
X134000000Y-127750000D01*
X134000000Y-127750000D02*
X134000000Y-125000000D01*
X133355000Y-129105000D02*
X133250000Y-129000000D01*
X133355000Y-129645000D02*
X133355000Y-129105000D01*
X140000000Y-116250000D02*
X138375000Y-117875000D01*
X139640000Y-114650000D02*
X140000000Y-115010000D01*
X140000000Y-115010000D02*
X140000000Y-116250000D01*
%TO.N,Net-(D1-A)*%
X113280000Y-86410000D02*
X113280000Y-98034744D01*
X114440000Y-85250000D02*
X113280000Y-86410000D01*
%TO.N,SCL*%
X131250000Y-106500000D02*
X131250000Y-104750000D01*
X131225000Y-106525000D02*
X131250000Y-106500000D01*
X131250000Y-102235686D02*
X131250000Y-104750000D01*
X145500000Y-100750000D02*
X146500000Y-100750000D01*
X117466598Y-85250000D02*
X120750000Y-85250000D01*
X171500000Y-97250000D02*
X167500000Y-101250000D01*
X121380000Y-105870000D02*
X119390000Y-103880000D01*
X136750000Y-102000000D02*
X131485686Y-102000000D01*
X119390000Y-103880000D02*
X119390000Y-101130101D01*
X153740000Y-114650000D02*
X145650000Y-106560000D01*
X131485686Y-102000000D02*
X131250000Y-102235686D01*
X168250000Y-90500000D02*
X168250000Y-94000000D01*
X146500000Y-100750000D02*
X146750000Y-100500000D01*
X168250000Y-94000000D02*
X171500000Y-97250000D01*
X167750000Y-90500000D02*
X168250000Y-90500000D01*
X115750000Y-86966598D02*
X117466598Y-85250000D01*
X145650000Y-103294365D02*
X146472182Y-102472182D01*
X145500000Y-98000000D02*
X145500000Y-100750000D01*
X115750000Y-90500000D02*
X115750000Y-86966598D01*
X145650000Y-106560000D02*
X145650000Y-103294365D01*
%TO.N,Net-(D13-DOUT)*%
X143750000Y-99750000D02*
X143750000Y-98500000D01*
X143750000Y-98500000D02*
X144250000Y-98000000D01*
%TO.N,+5V*%
X118750000Y-119750000D02*
X118750000Y-122750000D01*
X137500000Y-111500000D02*
X138500000Y-111500000D01*
X138500000Y-111500000D02*
X140000000Y-113000000D01*
%TO.N,Net-(D15-DOUT)*%
X139750000Y-124190000D02*
X139750000Y-128314314D01*
X139064314Y-129000000D02*
X138500000Y-129000000D01*
X138500000Y-129000000D02*
X138350000Y-129000000D01*
X139750000Y-128314314D02*
X139064314Y-129000000D01*
%TO.N,Net-(D6-A)*%
X136250000Y-123250000D02*
X133440000Y-123250000D01*
X136750000Y-122750000D02*
X136250000Y-123250000D01*
%TO.N,Column 0*%
X132690000Y-116310000D02*
X127500000Y-111120000D01*
X133440000Y-116310000D02*
X132690000Y-116310000D01*
X133440000Y-116310000D02*
X137840000Y-120710000D01*
%TO.N,Net-(D16-DIN)*%
X160190000Y-102289899D02*
X159489949Y-102989949D01*
X158210101Y-100310000D02*
X159369899Y-100310000D01*
X155250000Y-100149899D02*
X155250000Y-99250000D01*
X158210101Y-103110000D02*
X155250000Y-100149899D01*
X158082894Y-100437208D02*
X158210101Y-100310000D01*
X155750000Y-95250000D02*
X156000000Y-95500000D01*
X159489949Y-102989949D02*
X159369899Y-103110000D01*
X154000000Y-93500000D02*
X155750000Y-95250000D01*
X156000000Y-98354314D02*
X158082894Y-100437208D01*
X159369899Y-100310000D02*
X160190000Y-101130101D01*
X159369899Y-103110000D02*
X158210101Y-103110000D01*
X160190000Y-101130101D02*
X160190000Y-102289899D01*
X156000000Y-95500000D02*
X156000000Y-98354314D01*
%TO.N,Net-(D5-A)*%
X127500000Y-103648529D02*
X127500000Y-103500000D01*
X136636598Y-109500000D02*
X139598529Y-109500000D01*
X132991471Y-109140000D02*
X127500000Y-103648529D01*
X133440000Y-106303402D02*
X136636598Y-109500000D01*
X139238529Y-109140000D02*
X132991471Y-109140000D01*
X139598529Y-109500000D02*
X139238529Y-109140000D01*
X133440000Y-104250000D02*
X133440000Y-106303402D01*
%TO.N,Net-(D3-A)*%
X150735685Y-137400000D02*
X152720000Y-135415685D01*
X123900000Y-137400000D02*
X150735685Y-137400000D01*
X152720000Y-128970000D02*
X146500000Y-122750000D01*
X114440000Y-123250000D02*
X114440000Y-127940000D01*
X114440000Y-127940000D02*
X123900000Y-137400000D01*
X152720000Y-135415685D02*
X152720000Y-128970000D01*
%TD*%
M02*
