M48
; DRILL file KiCad 10.0.0 date 2026-05-18T00:32:11
; FORMAT={-:-/ absolute / metric / decimal}
; #@! TF.CreationDate,2026-05-18T00:32:11-04:00
; #@! TF.GenerationSoftware,Kicad,Pcbnew,10.0.0
; #@! TF.FileFunction,Plated,1,2,PTH
FMAT,2
METRIC
; #@! TA.AperFunction,Plated,PTH,ViaDrill
T1C0.300
; #@! TA.AperFunction,Plated,PTH,ComponentDrill
T2C0.800
; #@! TA.AperFunction,Plated,PTH,ComponentDrill
T3C1.000
; #@! TA.AperFunction,Plated,PTH,ComponentDrill
T4C1.500
%
G90
G05
T1
X113.0Y-108.25
X115.75Y-90.5
X116.5Y-122.5
X118.0Y-118.5
X118.75Y-119.75
X118.75Y-122.75
X120.58Y-98.75
X120.75Y-85.25
X121.38Y-105.87
X121.523Y-118.832
X122.0Y-111.75
X122.25Y-120.0
X122.5Y-114.75
X122.971Y-99.681
X123.5Y-101.75
X124.0Y-106.5
X124.0Y-108.75
X124.25Y-96.0
X124.25Y-104.5
X124.75Y-96.75
X127.5Y-132.25
X127.5Y-132.25
X128.75Y-114.5
X131.0Y-101.0
X131.04Y-121.0
X131.225Y-106.525
X133.355Y-129.645
X134.005Y-125.0
X134.29Y-120.01
X136.0Y-120.75
X136.75Y-102.0
X136.75Y-122.75
X137.35Y-121.15
X137.5Y-111.5
X137.546Y-98.75
X138.25Y-96.0
X138.375Y-117.875
X138.5Y-129.0
X139.64Y-98.85
X139.64Y-114.65
X139.75Y-124.19
X140.0Y-113.0
X140.978Y-88.316
X141.0Y-84.75
X142.5Y-101.25
X143.75Y-99.75
X144.0Y-93.25
X144.25Y-98.0
X144.75Y-119.5
X145.5Y-98.0
X145.5Y-100.75
X146.472Y-102.472
X146.75Y-100.5
X148.0Y-99.5
X148.25Y-128.79
X148.75Y-98.15
X149.0Y-101.75
X149.5Y-96.25
X153.25Y-101.75
X153.74Y-95.65
X153.74Y-98.85
X153.74Y-114.65
X153.74Y-117.85
X153.74Y-130.5
X153.74Y-136.85
X153.8Y-127.39
X154.0Y-93.5
X154.755Y-83.755
X155.0Y-96.25
X155.75Y-129.25
X156.25Y-94.5
X157.0Y-129.25
X157.75Y-131.0
X158.0Y-79.0
X159.0Y-112.5
X160.75Y-81.25
X160.994Y-97.503
X161.5Y-131.25
X162.0Y-79.0
X163.079Y-84.171
X163.125Y-97.125
X164.25Y-79.5
X167.5Y-101.25
X167.75Y-90.5
X174.5Y-109.5
X181.0Y-109.5
T2
X108.5Y-84.5
X108.5Y-92.12
X108.5Y-103.0
X108.5Y-110.62
X108.5Y-122.5
X108.5Y-130.12
X127.5Y-84.75
X127.5Y-92.37
X127.5Y-103.5
X127.5Y-111.12
X127.5Y-122.5
X127.5Y-130.12
X146.5Y-84.56
X146.5Y-92.18
X146.5Y-122.75
X146.5Y-130.37
X146.75Y-103.75
X146.75Y-111.37
X158.5Y-65.75
X158.5Y-73.37
X165.0Y-65.75
X165.0Y-73.37
T3
X117.5Y-65.63
X117.5Y-68.17
X117.5Y-70.71
X117.5Y-73.25
X171.25Y-118.0
X171.25Y-120.5
X171.25Y-123.0
X171.5Y-94.75
X171.5Y-97.25
X171.5Y-99.75
X185.75Y-118.0
X185.75Y-123.0
X186.0Y-94.75
X186.0Y-99.75
T4
X114.44Y-85.25
X114.44Y-104.25
X114.44Y-123.25
X120.79Y-82.71
X120.79Y-101.71
X120.79Y-120.71
X133.44Y-85.25
X133.44Y-104.25
X133.44Y-123.25
X139.79Y-82.71
X139.79Y-101.71
X139.79Y-120.71
X152.44Y-85.25
X152.44Y-104.25
X152.44Y-123.25
X158.79Y-82.71
X158.79Y-101.71
X158.79Y-120.71
T4
G00X178.1Y-114.9
M15
G01X179.4Y-114.9
M16
G05
G00X178.1Y-126.1
M15
G01X179.4Y-126.1
M16
G05
G00X178.35Y-91.65
M15
G01X179.65Y-91.65
M16
G05
G00X178.35Y-102.85
M15
G01X179.65Y-102.85
M16
G05
M30
